<svg width="48" height="48" viewBox="0 0 48 48" fill="none" xmlns="http://www.w3.org/2000/svg">
<path d="M31.5045 7.89474V9.15321L12.6309 15.1361C12.4921 15.1658 12.3645 15.2339 12.2629 15.3324C12.1613 15.4309 12.0897 15.556 12.0564 15.6931C12.0222 15.8304 12.0282 15.9744 12.0735 16.1084C12.1189 16.2424 12.2018 16.3608 12.3125 16.4496C12.422 16.5395 12.5547 16.5968 12.6955 16.6151C12.8363 16.6333 12.9794 16.6117 13.1084 16.5527C15.6831 15.7482 25.2895 12.6879 25.2895 12.6879V34.9691L7.61314 30.1552V17.3917C7.61475 17.2764 7.58933 17.1623 7.53887 17.0585C7.48842 16.9546 7.41432 16.8639 7.32245 16.7934C7.22622 16.7179 7.11303 16.6665 6.99253 16.6438C6.87202 16.621 6.74777 16.6275 6.63035 16.6628L0.546762 18.3476C0.394003 18.3898 0.258703 18.4792 0.160417 18.6028C0.0621318 18.7264 0.00595276 18.8779 0 19.0353L0 29.0481C0.00595276 29.2055 0.0621318 29.357 0.160417 29.4806C0.258703 29.6042 0.394003 29.6936 0.546762 29.7357L9.12192 32.0808C9.12192 32.0808 9.12192 34.8315 9.06655 37.0665C9.06655 39.0539 10.0701 39.8723 11.835 39.8723H17.5725C17.9122 39.9036 18.2548 39.8629 18.5774 39.7528C18.9001 39.6426 19.1955 39.4657 19.4442 39.2335C19.6929 39.0014 19.889 38.7195 20.0198 38.4064C20.1505 38.0932 20.2128 37.7561 20.2025 37.4172C20.2025 36.0831 20.2025 35.1135 20.2025 35.1135L31.4838 38.1874V39.3221C31.5017 39.5077 31.5886 39.6799 31.7274 39.8052C31.8663 39.9306 32.0471 40 32.2347 40C32.4223 40 32.6032 39.9306 32.742 39.8052C32.8808 39.6799 32.9677 39.5077 32.9856 39.3221V7.92913C33.021 7.78217 33.0109 7.62802 32.9565 7.48689C32.9022 7.34576 32.8062 7.22425 32.6811 7.13828C32.5586 7.05077 32.412 7.00256 32.2611 7.0001C32.1102 6.99764 31.9621 7.04106 31.8368 7.12453C31.7091 7.20408 31.6089 7.32043 31.5495 7.45806C31.4902 7.59568 31.4745 7.74802 31.5045 7.89474V7.89474ZM1.50186 19.6336L6.63727 18.2238V29.8664L1.50186 28.491V19.6336ZM18.7283 37.0046C18.7283 38.2081 18.3546 38.38 17.3926 38.38C14.901 38.38 12.6586 38.4281 11.8557 38.435C11.7007 38.4558 11.5431 38.4431 11.3935 38.3978C11.2439 38.3525 11.1059 38.2757 10.9889 38.1725C10.872 38.0694 10.7788 37.9423 10.7158 37.8001C10.6528 37.6579 10.6214 37.5038 10.6238 37.3485V32.5209L18.7422 34.7352L18.7283 37.0046ZM26.2999 35.2373V12.3785L31.5115 10.7211V36.6814L26.2999 35.2373ZM37.2421 20.0668L42.5159 14.861C42.6118 14.7964 42.7274 14.767 42.8427 14.7779C42.9581 14.7888 43.066 14.8393 43.1479 14.9207C43.2299 15.0021 43.2807 15.1094 43.2917 15.224C43.3026 15.3386 43.273 15.4534 43.208 15.5487L37.9411 20.7545C37.4912 21.1878 36.7368 20.5345 37.249 20.0668H37.2421ZM43.0834 31.9639C43.1747 32.0553 43.226 32.1789 43.226 32.3077C43.226 32.4365 43.1747 32.5601 43.0834 32.6515C42.9905 32.7406 42.8665 32.7904 42.7374 32.7904C42.6083 32.7904 42.4842 32.7406 42.3913 32.6515L37.2282 27.4801C37.1612 27.4199 37.1121 27.3425 37.0864 27.2563C37.0608 27.1702 37.0596 27.0787 37.0829 26.9919C37.1039 26.9044 37.1485 26.8242 37.2119 26.76C37.2753 26.6958 37.3551 26.6499 37.4428 26.6274C37.5303 26.6072 37.6215 26.6098 37.7077 26.6352C37.7938 26.6605 37.8719 26.7076 37.9342 26.7718L43.0834 31.9639ZM47.6029 24.3168H39.6852C39.5524 24.3168 39.4249 24.2648 39.3304 24.1722C39.2358 24.0795 39.1818 23.9536 39.18 23.8216C39.18 23.6885 39.2332 23.5608 39.328 23.4666C39.4227 23.3725 39.5512 23.3196 39.6852 23.3196H47.6029C47.7151 23.3427 47.8158 23.4036 47.8882 23.4919C47.9605 23.5802 48 23.6906 48 23.8044C48 23.9183 47.9605 24.0287 47.8882 24.117C47.8158 24.2053 47.7151 24.2661 47.6029 24.2893V24.3168Z" fill="#001E94"/>
</svg>
