<svg preserveAspectRatio="none" width="100%" height="100%" overflow="visible" style="display: block;" viewBox="0 0 149.898 38" fill="none" xmlns="http://www.w3.org/2000/svg">
<g id="SMNYL Logo">
<path d="M59.1471 13.9069C59.1471 12.7545 58.5413 12.2794 57.5639 11.8875C57.1799 11.7262 56.8933 11.6187 56.6406 11.5234C56.2036 11.3571 55.8577 11.2268 55.2921 10.9324C54.0696 10.2994 53.4503 9.28662 53.4503 7.92074C53.4503 5.97671 54.8966 4.86136 57.4169 4.86136C58.9913 4.86136 59.9686 5.07539 60.29 5.14575L60.3549 5.16016L60.3777 5.22559C60.5897 5.87799 60.4911 6.81648 60.0831 8.01283L60.0553 8.09313H59.3857L59.352 8.03216C59.1705 7.69847 58.8916 6.91738 58.7652 6.2905C58.4754 6.20562 57.9382 6.08653 57.2272 6.08653C55.8996 6.08653 55.1685 6.66903 55.1685 7.7273C55.1685 8.49054 55.5728 9.01664 56.4804 9.43178C56.95 9.65131 57.2485 9.76113 57.7404 9.94519L58.1991 10.1159C60.0792 10.8221 60.9177 11.8719 60.9177 13.52C60.9177 15.7662 59.4211 17.055 56.8127 17.055C54.8319 17.055 53.5832 16.3676 53.246 16.1564L53.2062 16.1314L53.1942 16.0837C52.9736 15.1836 53.259 13.969 53.6174 13.2201L53.6486 13.1541H54.3334L54.3655 13.2251C54.639 13.8493 54.822 14.6863 54.8857 15.2633C55.2948 15.525 56.0276 15.795 56.9162 15.795C58.2923 15.795 59.1471 15.071 59.1471 13.9069Z" fill="var(--fill-0, #0468FF)"/>
<path d="M69.6688 16.7841C69.7446 16.5823 69.7903 16.3041 69.7903 16.0413C69.7903 15.4864 69.5937 14.7359 69.4531 14.3784L69.4247 14.3035H68.8408L68.8097 14.3734C68.6222 14.7947 68.4867 15.2481 68.376 15.8345H65.4587V12.2092H67.6999C68.1243 12.2092 68.4071 12.054 68.5634 11.7353L68.5754 11.1244H65.4587V8.05406H68.3494C68.461 8.57284 68.5891 8.96591 68.7955 9.4276L68.826 9.49693H69.41L69.44 9.42257C69.579 9.06406 69.7766 8.32507 69.7766 7.80342C69.7766 7.49913 69.7456 7.27126 69.6824 7.10447L69.6541 7.02794H62.6928V7.146C62.6928 7.79233 63.0002 7.91988 63.9371 8.09227V15.7957C63.0002 15.9676 62.6928 16.0961 62.6928 16.7414V16.8606H69.6405L69.6688 16.7841Z" fill="var(--fill-0, #0468FF)"/>
<path d="M78.3926 12.0285C77.8135 12.0285 77.2115 12.2075 76.809 12.3567L76.7321 12.3855V12.9753L76.809 13.0047C77.1461 13.1282 77.6289 13.2286 78.118 13.2779V15.6483C77.7427 15.7713 77.2572 15.8927 76.3758 15.8927C74.7882 15.8927 73.0913 14.8206 73.0913 11.8122C73.0913 9.48522 74.3764 7.92316 76.2908 7.92316C76.9403 7.92316 77.4664 7.98516 77.8598 8.11214C77.9955 8.87767 78.2199 9.42871 78.3441 9.69205L78.3762 9.75966H78.9581L78.9864 9.6853C79.1346 9.31558 79.3825 8.59889 79.3825 7.96411C79.3825 7.74082 79.3542 7.422 79.2899 7.213L79.2719 7.15214L79.2125 7.13429C78.5871 6.94703 77.4637 6.88102 76.6912 6.88102C74.2632 6.88102 71.4265 8.26955 71.4265 12.1771C71.4265 14.4055 72.6712 17.0064 76.1753 17.0064C78.0189 17.0064 79.0845 16.3217 79.5546 15.9132L79.5966 15.8772V12.4371L79.5655 12.4032C79.4043 12.2225 79.0121 12.0285 78.3926 12.0285Z" fill="var(--fill-0, #0468FF)"/>
<path d="M87.6777 7.75466L87.7534 7.78349C88.0858 7.9099 88.6431 7.99695 89.1066 8.06616V12.8333C89.1066 14.8251 88.2905 15.8351 86.6801 15.8351C84.8972 15.8351 84.0663 14.8806 84.0663 12.8333V8.06616C84.531 7.99695 85.0883 7.9099 85.4195 7.78349L85.4953 7.75466V7.02688H81.2579V7.14654C81.2579 7.77514 81.5941 7.90818 82.5447 8.07897V12.936C82.5447 15.6942 83.8604 17.0352 86.5651 17.0352C88.8516 17.0352 90.328 15.4266 90.328 12.936L90.3433 8.07897C91.2934 7.90818 91.63 7.77514 91.63 7.14654V7.02688H87.6777V7.75466Z" fill="var(--fill-0, #0468FF)"/>
<path d="M101.995 16.1064L102.067 16.1374V16.73L102.016 16.7666C101.851 16.8835 101.529 17.0205 101.163 17.0205C100.427 17.0205 99.9647 16.6624 99.1781 15.4817L97.3297 12.6841C96.9091 12.7305 96.4771 12.7295 96.0178 12.6768V15.8232C96.5867 15.9229 96.9919 16.0144 97.2528 16.1037L97.3334 16.1297V16.8603H93.2105V16.7416C93.2105 16.1159 93.5456 15.9823 94.4968 15.8104V8.09247C93.5593 7.92065 93.2536 7.79264 93.2536 7.14619V7.02711H95.1418C95.4796 7.02711 96.0364 7.0143 96.5381 7.00217C96.9522 6.99325 97.328 6.9833 97.5166 6.9833C99.5927 6.9833 100.736 7.92179 100.736 9.62525C100.736 10.7754 100.023 11.7904 98.866 12.3043L100.272 14.4135C100.834 15.2666 101.275 15.7882 101.995 16.1064ZM98.6819 11.0476C99.0277 10.6341 99.1013 10.1091 99.1013 9.74216C99.1013 8.56366 98.4378 7.96549 97.1304 7.96549C96.8688 7.96549 96.3528 7.96549 96.0178 7.99718V11.6646C96.3071 11.7051 96.5806 11.7255 96.8312 11.7255C97.6827 11.7255 98.3055 11.4972 98.6819 11.0476Z" fill="var(--fill-0, #0468FF)"/>
<path d="M112.459 11.7979C112.459 14.825 110.426 17.0214 107.624 17.0214C104.834 17.0214 103.032 15.0684 103.032 12.0456C103.032 9.04507 105.041 6.8671 107.81 6.8671C110.635 6.8671 112.459 8.80335 112.459 11.7979ZM110.795 11.8855C110.795 9.48743 109.59 7.93704 107.724 7.93704C105.884 7.93704 104.696 9.51512 104.696 11.9592C104.696 14.375 105.895 15.9376 107.753 15.9376C109.601 15.9376 110.795 14.3473 110.795 11.8855Z" fill="var(--fill-0, #0468FF)"/>
<path d="M118.395 11.2343L118.006 11.0891C117.601 10.9394 117.358 10.8485 116.973 10.6684C116.229 10.3286 115.897 9.89957 115.897 9.27589C115.897 8.41175 116.497 7.93724 117.582 7.93724C118.16 7.93724 118.598 8.0331 118.84 8.10185C118.946 8.62006 119.174 9.26262 119.325 9.53808L119.358 9.59963H119.939L119.967 9.51864C120.306 8.52317 120.388 7.74151 120.21 7.19665L120.188 7.13281L120.123 7.11737C119.399 6.95939 118.62 6.88183 117.741 6.88183C115.639 6.88183 114.434 7.81301 114.434 9.43673C114.434 10.5759 114.951 11.4206 115.971 11.9478C116.44 12.1927 116.726 12.3008 117.088 12.4383C117.298 12.5165 117.535 12.6068 117.855 12.741C118.656 13.062 119.152 13.4495 119.152 14.3935C119.152 15.3452 118.452 15.9362 117.326 15.9362C116.599 15.9362 116.001 15.7194 115.662 15.506C115.608 15.026 115.456 14.3358 115.23 13.8198L115.199 13.7499H114.606L114.575 13.817C114.277 14.4389 114.038 15.4512 114.223 16.2017L114.234 16.2487L114.275 16.2743C114.555 16.4501 115.594 17.0216 117.239 17.0216C119.412 17.0216 120.659 15.9467 120.659 14.073C120.659 12.6984 119.961 11.8226 118.395 11.2343Z" fill="var(--fill-0, #0468FF)"/>
<path d="M66.4527 31.4543L65.8175 21.9476C66.943 21.7286 67.2307 21.5557 67.2307 20.813V20.6909H64.2714C63.4352 20.6909 63.2101 20.9575 62.6686 22.5967L60.5385 28.9621L58.4235 22.5081C57.9022 20.9121 57.6817 20.6909 56.6106 20.6909H53.8094V20.813C53.8094 21.5557 54.097 21.7286 55.2214 21.9476L54.4827 31.4543C53.2192 31.6783 52.8984 31.8474 52.8984 32.5757V32.6983H57.5002V31.8451L57.419 31.818C57.0044 31.6766 56.3736 31.5568 55.8969 31.4738L56.5627 22.6655C57.7154 26.0186 59.4603 31.1506 59.4603 31.1506L59.4887 31.232H60.3097C61.1258 31.232 61.3447 30.6013 61.8236 29.2198C62.6702 26.7697 63.4199 24.5574 64.0556 22.6366L64.6876 31.4738C64.2109 31.5568 63.579 31.6766 63.1643 31.818L63.0837 31.8451V32.6983H68.0374V32.5757C68.0374 31.8474 67.7144 31.6794 66.4527 31.4543Z" fill="var(--fill-0, #0468FF)"/>
<path d="M79.0998 27.5567C79.0998 30.6298 77.0345 32.8604 74.1891 32.8604C71.3557 32.8604 69.5263 30.8776 69.5263 27.8078C69.5263 24.7607 71.5665 22.549 74.3782 22.549C77.2471 22.549 79.0998 24.5151 79.0998 27.5567ZM77.4098 27.646C77.4098 25.2091 76.1863 23.6354 74.2915 23.6354C72.4223 23.6354 71.2162 25.2384 71.2162 27.7197C71.2162 30.1742 72.4355 31.759 74.3198 31.759C76.1978 31.759 77.4098 30.1448 77.4098 27.646Z" fill="var(--fill-0, #0468FF)"/>
<path d="M86.9485 23.4539L87.0297 23.481C87.2956 23.5714 87.7068 23.6647 88.2844 23.765V30.4236L83.5066 23.3115C83.2032 22.8642 82.9035 22.7117 82.3194 22.7117H80.6312V22.8331C80.6312 23.4629 80.8719 23.6087 81.809 23.7927V31.6308C80.8426 31.8026 80.5015 31.9385 80.5015 32.577V32.6974H84.3553V31.9551L84.2741 31.9291C83.9429 31.8165 83.4346 31.7184 83.0037 31.6447V25.3076L88.0729 32.7496L88.1083 32.801H88.4472C89.4801 32.801 89.4801 31.6718 89.4801 31.0654V23.7788C90.4465 23.6053 90.7865 23.4717 90.7865 22.8331V22.7117H86.9485V23.4539Z" fill="var(--fill-0, #0468FF)"/>
<path d="M100.673 22.7118H92.5241L92.4941 22.7894C92.4299 22.9602 92.3987 23.2023 92.3987 23.5294C92.3987 24.0627 92.602 24.8752 92.742 25.2317L92.7714 25.3082H93.3647L93.3962 25.2356C93.5891 24.7905 93.7252 24.3426 93.849 23.7544H95.8402V31.6242C94.9031 31.7329 94.4793 31.9092 94.4618 32.5727L94.4586 32.698H98.6626V31.9242L98.5788 31.8981C98.2535 31.7977 97.7158 31.7025 97.3846 31.6559V23.7544H99.3481C99.4706 24.3426 99.6078 24.7905 99.8007 25.2356L99.8313 25.3082H100.424L100.455 25.2317C100.595 24.8752 100.798 24.0632 100.798 23.5294C100.798 23.2023 100.766 22.9602 100.702 22.7894L100.673 22.7118Z" fill="var(--fill-0, #0468FF)"/>
<path d="M109.271 30.101H108.679L108.647 30.1719C108.457 30.5989 108.321 31.06 108.207 31.6553H105.244V27.9735H107.521C107.951 27.9735 108.238 27.8165 108.398 27.4935L108.41 26.8737H105.244V23.7545H108.181C108.295 24.2812 108.424 24.6802 108.633 25.1486L108.665 25.2196H109.258L109.287 25.1436C109.43 24.7799 109.63 24.0301 109.63 23.4995C109.63 23.1913 109.599 22.9584 109.534 22.7895L109.505 22.7106H102.438V22.8327C102.438 23.489 102.749 23.6199 103.7 23.7933V31.6154C102.749 31.7911 102.438 31.9214 102.438 32.5766V32.698H109.491L109.519 32.6203C109.598 32.4137 109.644 32.1315 109.644 31.8654C109.644 31.3023 109.444 30.5389 109.301 30.1775L109.271 30.101Z" fill="var(--fill-0, #0468FF)"/>
<path d="M120.303 31.9318L120.374 31.9639V32.5666L120.324 32.6015C120.156 32.7217 119.829 32.8614 119.457 32.8614C118.71 32.8614 118.24 32.4955 117.441 31.2971L115.566 28.4561C115.136 28.5038 114.697 28.5017 114.231 28.4485V31.6452C114.81 31.745 115.221 31.8371 115.487 31.9285L115.568 31.9562V32.6973H111.381V32.5765C111.381 31.9417 111.722 31.806 112.687 31.6302V23.7936C111.735 23.619 111.424 23.4888 111.424 22.8325V22.7111H113.343C113.686 22.7111 114.251 22.6983 114.761 22.6862C115.18 22.6762 115.564 22.6674 115.754 22.6674C117.862 22.6674 119.025 23.6202 119.025 25.3509C119.025 26.5183 118.3 27.5487 117.124 28.0704L118.553 30.2135C119.123 31.0782 119.571 31.6092 120.303 31.9318ZM116.938 26.7937C117.289 26.3741 117.363 25.8414 117.363 25.4701C117.363 24.2721 116.689 23.6645 115.361 23.6645C115.096 23.6645 114.572 23.6645 114.231 23.6973V27.4212C114.526 27.4623 114.804 27.4827 115.059 27.4827C115.923 27.4827 116.555 27.2511 116.938 26.7937Z" fill="var(--fill-0, #0468FF)"/>
<path d="M130.837 31.9318L130.909 31.9639V32.5666L130.858 32.6015C130.691 32.7217 130.362 32.8614 129.992 32.8614C129.244 32.8614 128.774 32.4955 127.976 31.2971L126.099 28.4561C125.671 28.5038 125.232 28.5017 124.766 28.4485V31.6452C125.345 31.745 125.756 31.8371 126.022 31.9285L126.103 31.9562V32.6973H121.915V32.5765C121.915 31.9417 122.257 31.806 123.222 31.6302V23.7936C122.27 23.619 121.958 23.4888 121.958 22.8325V22.7111H123.878C124.221 22.7111 124.786 22.6983 125.295 22.6862C125.715 22.6762 126.098 22.6674 126.289 22.6674C128.397 22.6674 129.558 23.6202 129.558 25.3509C129.558 26.5183 128.834 27.5487 127.659 28.0704L129.088 30.2135C129.658 31.0782 130.105 31.6092 130.837 31.9318ZM127.472 26.7937C127.824 26.3741 127.898 25.8414 127.898 25.4701C127.898 24.2721 127.224 23.6645 125.897 23.6645C125.631 23.6645 125.107 23.6645 124.766 23.6973V27.4212C125.061 27.4623 125.339 27.4827 125.593 27.4827C126.457 27.4827 127.09 27.2511 127.472 26.7937Z" fill="var(--fill-0, #0468FF)"/>
<path d="M139.284 30.101H138.692L138.66 30.1719C138.47 30.5989 138.332 31.06 138.22 31.6553H135.257V27.9735H137.534C137.965 27.9735 138.251 27.8166 138.411 27.4935L138.423 26.8737H135.257V23.7545H138.193C138.307 24.2812 138.436 24.6802 138.646 25.1486L138.677 25.2196H139.271L139.301 25.1436C139.443 24.7799 139.643 24.0301 139.643 23.4995C139.643 23.1913 139.612 22.9584 139.547 22.7895L139.517 22.7106H132.45V22.8327C132.45 23.489 132.761 23.6199 133.713 23.7933V31.6154C132.762 31.7911 132.45 31.9214 132.45 32.5766V32.698H139.504L139.532 32.6203C139.611 32.4137 139.657 32.1315 139.657 31.8654C139.657 31.3023 139.457 30.5389 139.314 30.1775L139.284 30.101Z" fill="var(--fill-0, #0468FF)"/>
<path d="M146.38 22.7118V23.4557L146.462 23.4828C146.76 23.5781 147.18 23.6469 147.552 23.7067L147.67 23.7256L145.831 27.4484L144.034 23.7256L144.132 23.7106C144.504 23.649 144.925 23.5798 145.228 23.4828L145.31 23.4557V22.7118H141.239V22.8336C141.239 23.439 141.546 23.5798 142.295 23.7533L144.884 28.7856V31.6154C143.851 31.8005 143.548 31.9608 143.548 32.5765V32.698H147.765V31.9557L147.684 31.9279C147.342 31.8116 146.829 31.7019 146.428 31.6298V28.4896L148.858 23.7528C149.581 23.5832 149.898 23.434 149.898 22.8336V22.7118H146.38Z" fill="var(--fill-0, #0468FF)"/>
<path d="M27.159 23.3861C27.3313 23.3861 27.3245 22.9309 27.3245 22.9309C27.5391 18.9258 27.3416 15.433 27.3416 15.433C27.2267 14.1123 26.7891 14.03 26.7891 14.03H27.4968C27.4619 13.6679 27.3483 13.403 27.3483 13.403C25.8203 8.96941 24.9179 7.00868 24.9179 7.00868C23.6695 10.5194 22.8722 13.3612 22.8722 13.3612C22.797 13.6679 22.7499 14.063 22.7499 14.063C24.4093 14.03 24.7695 14.3101 24.7695 14.3101C25.7787 14.7312 25.8374 15.9745 25.8374 15.9745C25.8696 17.1452 25.1968 17.6244 25.1968 17.6244C24.6533 18.1357 23.8 18.2329 23.8 18.2329C24.9828 20.8559 26.0993 22.4859 26.0993 22.4859C26.7891 23.5655 27.159 23.3861 27.159 23.3861Z" fill="var(--fill-0, #0468FF)"/>
<path d="M18.6254 6.47992C18.6254 6.47992 18.3636 5.72137 17.5909 5.75288C17.5909 5.75288 17.2772 5.67136 15.4887 5.75288C15.4887 5.75288 14.8808 5.75288 14.913 6.56271V8.62489C14.913 8.62489 15.9474 8.67617 17.5246 8.59395C17.5246 8.59395 17.8043 8.57417 18.0839 8.47484L17.9191 9.82763C17.9191 9.82763 17.87 9.61203 15.0449 9.71136C15.0449 9.71136 14.9465 9.71135 14.913 9.81124C14.913 9.81124 14.8652 10.984 14.913 12.4677C14.913 12.4677 14.9957 13.0858 15.7498 13.094C15.7498 13.094 18.3301 13.1598 18.8887 12.8627C18.8887 12.8627 19.1355 12.8209 19.48 12.204C19.48 12.204 19.4868 12.4073 19.3166 14.0634H21.3766C21.3766 14.0634 21.631 14.0298 21.631 13.7985C21.631 13.7985 21.7451 13.5506 21.2713 12.3327C21.2713 12.3327 20.416 10.0242 18.6254 6.47992Z" fill="var(--fill-0, #0468FF)"/>
<path d="M14.1079 14.8049C12.6311 14.7063 11.9673 15.8599 11.9673 15.8599C11.4497 16.6172 11.4818 18.4157 11.4818 18.4157C11.3833 20.7891 11.9584 21.7319 11.9584 21.7319C12.6647 22.9978 13.8139 22.978 13.8139 22.978C15.5545 23.0314 16.1071 21.6984 16.1071 21.6984C16.6314 20.5263 16.5391 18.4157 16.5391 18.4157C16.4987 16.635 15.9634 15.8599 15.9634 15.8599C15.3481 14.7316 14.1079 14.8049 14.1079 14.8049Z" fill="var(--fill-0, #0468FF)"/>
<path d="M36.0963 0H1.76718C0.790964 0 0 0.792175 0 1.77325V36.2253C0 37.2066 0.790964 38 1.76718 38H36.0963C37.0713 38 37.8636 37.2066 37.8636 36.2253V1.77325C37.8636 0.792175 37.0713 0 36.0963 0ZM30.6684 32.2286C30.6684 32.2286 30.6178 32.8406 30.3218 32.8228C30.3218 32.8228 30.2219 32.957 27.5289 32.79C27.5289 32.79 26.9375 32.6407 24.7859 32.7736C24.7859 32.7736 25.2624 32.6578 25.3445 31.4228C25.3445 31.4228 25.4757 27.9271 25.4108 24.0357C25.4108 24.0357 25.4348 23.4669 25.0334 23.427C25.0334 23.427 24.6546 23.4764 24.4318 23.1313C24.4318 23.1313 23.2469 20.7243 22.4812 18.7949C22.3957 18.5697 22.3123 18.3561 22.2399 18.1528C22.2399 18.1528 22.0574 17.9214 22.4204 17.9858C22.4204 17.9858 23.2414 18.0042 23.718 17.5256C23.718 17.5256 24.4242 16.8335 24.2103 15.9435C24.2103 15.9435 24.1781 15.1562 23.3721 14.9372C23.3721 14.9372 22.6993 14.7056 21.6314 14.9201C21.6314 14.9201 21.256 14.9693 21.2375 15.4321V22.6849C21.2375 22.6849 21.1228 23.4607 22.0265 23.395L23.2599 23.3971C23.2599 23.3971 23.6695 23.3291 23.5374 23.6907L23.357 24.5801C23.357 24.5801 23.3242 24.4383 22.8633 24.4061C22.8633 24.4061 22.4204 24.2527 20.3672 24.3678C20.3672 24.3678 19.8913 24.3508 19.8757 24.6456V27.4706H21.9452C21.9452 27.4706 23.2099 27.5019 23.3884 27.4013L23.1273 28.7514C23.1273 28.7514 22.9625 28.5871 22.5509 28.6028C22.5509 28.6028 21.926 28.4714 19.8586 28.5686L19.8913 31.6365C19.8913 31.6365 19.8757 32.6921 20.3672 32.8071C20.3672 32.8071 19.2828 32.6578 17.6891 32.8071C17.6891 32.8071 18.2314 32.625 18.2977 31.8165C18.2977 31.8165 18.5437 28.1743 18.4447 24.8106C18.4447 24.8106 18.5267 23.4237 17.9681 23.2593L18.8234 23.2615C18.8234 23.2615 19.4805 23.3779 19.6131 21.8765C19.6131 21.8765 19.7402 20.5071 19.7553 18.7949C19.7608 17.8475 19.7341 16.7945 19.6275 15.81C19.6275 15.81 19.6452 14.2935 18.6607 14.1943L15.2758 14.1785C15.2758 14.1785 16.6054 14.5742 17.2632 15.3992C17.2632 15.3992 18.2232 16.4625 18.215 18.4656C18.215 18.4656 18.2252 18.5813 18.2314 18.7949C18.2552 19.5186 18.2163 21.4225 17.2783 22.405C17.2783 22.405 17.0328 22.9658 15.489 23.3615C15.489 23.3615 14.815 23.6257 14.8313 24.6958C14.8313 24.6958 14.7494 28.0264 14.8313 32.0801C14.8313 32.0801 14.8313 32.5764 15.4214 32.8228C15.4214 32.8228 14.3718 32.6086 12.4507 32.7571C12.4507 32.7571 12.8779 32.7235 13.0086 32.1136C13.0086 32.1136 13.2731 31.4714 13.2889 27.9751V24.6794C13.2889 24.6794 13.3053 23.5098 12.6148 23.3455C12.6148 23.3455 11.3493 23.145 10.7579 22.4378C10.7579 22.4378 9.90396 21.7944 9.8718 19.2085C9.8718 19.2085 9.8567 19.0552 9.84993 18.7949C9.83695 18.1911 9.88068 16.9868 10.347 16.0249C10.347 16.0249 10.9061 14.5906 12.6647 14.2614C12.6647 14.2614 12.0295 13.1071 7.89114 6.82639V13.3049C7.89114 13.3049 7.94998 13.9964 8.70398 14.0636H10.563C10.563 14.0636 10.2156 14.145 7.83499 18.3315C7.83499 18.3315 7.71407 18.5204 7.56706 18.7949C7.31549 19.2578 6.98251 19.9636 7.01256 20.4113V22.5864C7.01256 22.5864 7.01256 23.145 7.81862 23.2615H9.39519C8.50856 23.3291 8.52493 24.0679 8.52493 24.0679C8.34306 27.4006 8.47428 31.4111 8.47428 31.4111C8.44352 31.8563 9.13205 31.9069 9.13205 31.9069C9.13205 31.9069 10.6443 31.9897 11.168 31.8836C11.168 31.8836 11.7431 31.8164 12.0555 31.3331L11.858 32.46C11.858 32.46 11.834 32.716 11.4498 32.8037C11.4498 32.8037 11.2268 32.938 9.64069 32.7736C9.64069 32.7736 8.09615 32.6578 6.3555 32.7571C6.3555 32.7571 7.02964 32.5428 7.01256 31.1756C7.01256 31.1756 7.06322 28.3057 7.01256 24.78C7.01256 24.78 6.97913 23.3779 6.06146 23.427L4.7953 23.4441C4.7953 23.4441 5.58499 23.2114 5.61716 22.3377L5.61378 20.0115C5.61378 19.8233 5.55762 19.2325 5.14606 18.5375C4.76736 17.9002 4.23276 16.5652 3.23933 15.3794C2.26777 14.2175 1.44803 14.0738 1.44803 14.0738H3.65217C3.65217 14.0738 4.1752 14.234 4.77343 14.9974C5.12687 15.4485 6.65221 18.3315 6.65221 18.3315L8.27802 15.4485C8.27802 15.4485 8.8517 14.2121 7.98271 14.1292H5.79903C5.79903 14.1292 6.57165 14.1292 6.61878 13.3364C6.61878 13.3364 6.86766 9.16505 6.66802 6.16645C6.66802 6.16645 6.68509 5.11206 6.24008 4.81635H9.0014C9.0014 4.81635 8.93579 5.37428 9.72351 6.66137L13.3074 12.3828L13.3053 6.25066C13.3053 6.25066 13.3532 4.88063 12.7474 4.78287C12.7474 4.78287 13.7908 4.86354 19.3909 4.79925C19.3909 4.79925 19.7355 4.70134 19.9823 5.45848C19.9823 5.45848 20.5313 7.27143 22.3205 10.8C22.3205 10.8 23.0698 8.80365 24.0229 5.5571C24.0229 5.5571 24.2267 4.89646 23.8992 4.76506C23.8992 4.76506 24.6724 4.89646 25.8539 4.76506C25.8539 4.76506 25.7881 5.06345 26.7078 7.45425C26.7078 7.45425 27.0196 8.24558 28.2352 11.2442C28.2352 11.2442 29.0392 9.20065 29.9771 5.96851C29.9771 5.96851 30.3867 5.02785 29.8623 4.83147C29.8623 4.83147 30.4538 4.93135 31.8314 4.81635C31.8314 4.81635 31.4696 4.97035 28.5319 14.0369H29.3031C29.3031 14.0369 28.9606 14.0793 28.9277 14.7056C28.9277 14.7056 28.9264 16.079 28.9264 18.7949C28.9243 19.9178 28.9243 21.2753 28.9243 22.8664C28.9243 22.8664 28.9094 23.4669 29.4672 23.4107H30.239C30.239 23.4107 30.7819 23.3866 30.6978 23.5921L30.4845 24.6306C30.4845 24.6306 30.3553 24.389 29.8945 24.389C29.8945 24.389 29.4672 24.274 27.4797 24.3218C27.4797 24.3218 26.9949 24.3007 26.9997 24.7129L27.0045 27.2815C29.2203 27.2979 28.86 27.2979 28.86 27.2979C30.1748 27.3308 30.2719 27.2479 30.2719 27.2479L30.0586 28.5193C30.0586 28.5193 29.928 28.3886 29.4514 28.3728C29.4514 28.3728 29.007 28.2906 27.0045 28.3502V31.2509C27.0045 31.2509 27.0196 31.7269 27.6608 31.7623C27.6608 31.7623 28.2509 31.9268 29.4514 31.7767C29.4514 31.7767 30.6684 31.8513 30.9131 31.0757L30.6684 32.2286ZM33.0142 23.4142C32.6539 23.4634 32.3585 23.0341 32.3585 23.0341C29.2374 18.1863 29.0727 18.1685 29.0727 18.1685C31.1587 15.6943 32.3907 14.3319 32.3907 14.3319C32.671 14.0177 33.1782 14.0348 33.1782 14.0348H34.4924C34.0999 14.1833 33.3759 14.9728 33.3759 14.9728C32.0947 16.2092 30.745 17.8064 30.745 17.8064C34.0999 23.1313 34.878 23.4142 34.878 23.4142H33.0142Z" fill="var(--fill-0, #0468FF)"/>
</g>
</svg>
